<?xml version="1.0" encoding="utf-8"?>
<!-- Generator: Adobe Illustrator 22.1.0, SVG Export Plug-In . SVG Version: 6.00 Build 0)  -->
<svg version="1.1" id="Layer_1" xmlns="http://www.w3.org/2000/svg" xmlns:xlink="http://www.w3.org/1999/xlink" x="0px" y="0px"
	 viewBox="0 0 261.6 36.7" style="enable-background:new 0 0 261.6 36.7;" xml:space="preserve">
<g>
	<g>
		<path d="M238.5,11.6h10.2c0.2-0.9,0.5-1.8,0.7-2.6c1.9-0.3,3.7-0.5,5.5-0.7c1.7-0.2,3.4-0.4,5-0.6c0.8-0.1,1.3-0.3,1.5-0.5
			c0.2-0.2,0.2-0.7,0.1-1.4c-0.1-1.2-0.5-2.3-1.3-3.6c-0.2-0.4-0.5-0.7-0.7-0.9c-0.2-0.2-0.4-0.4-0.7-0.5c-0.2-0.1-0.5-0.2-0.8-0.2
			c-0.3,0-0.6-0.1-1-0.1c-1.6,0.1-3.3,0.1-4.9,0.3c-1.7,0.1-3.3,0.3-4.9,0.5c-1.6,0.2-3.1,0.4-4.5,0.7c-1.4,0.3-2.7,0.5-3.9,0.9
			c0.1,1.3,0.1,2.9,0,4.6C238.7,8.9,238.6,10.2,238.5,11.6z"/>
		<path d="M238.2,14.1c-0.2,1.6-0.4,3.2-0.6,4.8c-0.3,1.8-0.5,3.6-0.8,5.2h10.3c1-0.2,2-0.4,3.1-0.6c1.6-0.3,3.1-0.6,4.7-0.8
			c0.7-0.1,1.2-0.2,1.4-0.5c0.2-0.2,0.2-0.7,0-1.3c-0.1-0.5-0.3-1.1-0.5-1.6c-0.2-0.5-0.4-1.1-0.7-1.6c-0.6-0.9-1.6-1.3-2.9-1.3
			c-0.8,0-1.7,0.1-2.4,0.1c-0.8,0.1-1.6,0.1-2.4,0.2c0.3-0.9,0.5-1.9,0.8-2.8H238.2z"/>
		<path d="M236.3,26.6c-0.1,0.9-0.3,1.7-0.4,2.5c-0.2,1.4-0.3,2.5-0.3,3.2c0,0.7,0.1,1.2,0.2,1.6c0.1,0.4,0.5,0.7,1.2,1.1
			c0.5,0.2,1.1,0.4,1.8,0.7c0.7,0.2,1.3,0.4,2,0.5c0.6,0.1,1.1,0.1,1.6,0c0.4-0.1,0.7-0.4,0.7-0.9c0.3-1.5,0.7-3.1,1.1-5
			c0.3-1.2,0.5-2.5,0.8-3.7H236.3z"/>
	</g>
	<g>
		<path d="M226.3,14.1c0,0-0.1,0.1-0.1,0.1c-1,0.9-2.2,1.8-3.6,2.8c-1.4,0.9-3.1,1.7-5,2.3c0.5-1.8,1-3.5,1.4-5c0-0.1,0-0.1,0-0.2
			h-9.6c-0.2,1.1-0.3,2.1-0.5,3.2c-0.2,1.6-0.4,3.1-0.6,4.7c-0.1,0.7-0.2,1.4-0.2,2.1h15.8c2.8-1.3,5.3-2.7,7.4-4.2
			c2.2-1.6,3.7-3.3,4.7-5.1c0.1-0.2,0.2-0.5,0.3-0.7H226.3z"/>
		<path d="M219.7,11.6c0.2-0.6,0.3-1.2,0.5-1.7c1.1-0.5,2-0.9,3-1.1c0.9-0.2,1.8-0.3,2.6-0.3c1.6,0,2.5,0.4,2.9,1.1
			c0.2,0.5,0,1.1-0.4,1.9c0,0,0,0,0,0h8.3c0-0.4-0.1-0.8-0.2-1.3c-0.4-1.7-1-3.1-1.8-4.3s-1.6-2.3-2.6-3.3c-1.2-1.2-2.6-1.9-4.1-2.1
			c-1.6-0.3-3.2-0.2-5,0.1c-1.8,0.3-3.6,0.8-5.4,1.6c-1.8,0.7-3.6,1.5-5.2,2.2c-0.4,0.2-0.7,0.7-1,1.4c-0.3,0.8-0.6,1.7-0.9,2.9
			c-0.2,0.8-0.4,1.8-0.6,2.8H219.7z"/>
		<path d="M232.3,33.1c-0.7-0.5-1.4-1.2-2.2-1.9c-0.8-0.7-1.5-1.5-2.3-2.3c-0.8-0.8-1.5-1.5-2.2-2.3h-9.5c0.6,0.8,1.3,1.5,2.1,2.2
			c0.9,0.8,1.7,1.7,2.6,2.4c0.9,0.8,1.7,1.5,2.5,2.1c0.8,0.6,1.5,1.2,2.1,1.6c0.9,0.6,1.8,0.9,2.5,1s1.4,0,2-0.1
			c0.5-0.1,0.9-0.2,1.2-0.2c0.3-0.1,0.7-0.3,1.2-0.7c0.4-0.3,0.6-0.6,0.7-0.8C233.1,33.9,232.8,33.5,232.3,33.1z"/>
		<path d="M207.8,26.6c-0.1,1.3-0.2,2.5-0.3,3.5c-0.1,1.1-0.2,1.9-0.2,2.5c-0.1,0.7,0,1.3,0.2,1.7c0.2,0.4,0.5,0.8,1.1,1.1
			c0.5,0.3,1.1,0.5,1.6,0.6c0.6,0.1,1.2,0.3,1.9,0.4c0.6,0.1,1,0.1,1.3,0c0.2-0.1,0.4-0.4,0.5-0.8c0.3-1.5,0.6-2.9,0.9-4.4
			c0.3-1.4,0.6-2.9,1-4.4H207.8z"/>
	</g>
	<g>
		<path d="M196.9,14.1c0,0.2-0.1,0.4-0.1,0.5c-0.5,2.2-1,4.3-1.6,6.4c-0.3,1.1-0.6,2.1-0.9,3h9.3c0.7-2.2,1.5-4.6,2.1-7.2
			c0.2-0.9,0.5-1.8,0.7-2.8H196.9z"/>
		<path d="M206.9,11.6c0.4-1.7,0.8-3.5,1.2-5.3c0.1-0.4,0.1-0.7,0.2-0.9c0-0.3,0-0.5-0.1-0.7c-0.1-0.2-0.2-0.4-0.4-0.6
			c-0.2-0.2-0.5-0.4-0.9-0.7c-0.7-0.4-1.5-0.9-2.4-1.3c-0.9-0.4-1.7-0.8-2.5-1s-1.4-0.2-2-0.1c-0.5,0.2-0.8,0.6-0.9,1.5
			c-0.3,1.7-0.7,3.6-1.1,5.7c-0.2,1.1-0.4,2.3-0.7,3.4H206.9z"/>
		<path d="M190.9,11.6c0.4-1.3,0.7-2.5,1.1-3.6c0.5-1.6,0-3-1.5-4c-0.7-0.5-1.4-1-2.2-1.3c-0.7-0.4-1.5-0.7-2.3-0.9
			c-0.9-0.3-1.5-0.4-1.9-0.2c-0.4,0.2-0.7,0.6-1,1.4c-0.5,1.7-1,3.5-1.4,5.3c-0.3,1.1-0.5,2.3-0.8,3.4H190.9z"/>
		<path d="M188.3,22.4c0.3-1.6,0.6-3.2,1-4.9c0.3-1.1,0.6-2.2,0.9-3.4h-9.8c-0.3,1.6-0.6,3.3-0.8,4.9c-0.2,1.8-0.3,3.4-0.3,5
			c0,0.1,0,0.1,0,0.2h8.6C188.1,23.6,188.2,23,188.3,22.4z"/>
		<path d="M193.3,26.6c-0.6,1.5-1.3,2.8-2,3.6c-0.7,0.9-1.4,1.2-2.1,1.1c-0.6-0.2-1-0.7-1.2-1.5c-0.2-0.8-0.3-1.9-0.2-3.2
			c0,0,0,0,0,0h-8.2c0.1,0.6,0.1,1.1,0.2,1.6c0.3,1.3,0.7,2.4,1.2,3.4c0.4,0.8,0.9,1.4,1.5,1.9c0.6,0.5,1.2,1,1.9,1.3
			c1.6,0.9,3.6,1.4,6,1.5c1.2,0.1,2.3,0,3.2-0.1c0.9-0.2,1.9-0.5,2.8-1c1.3-0.8,2.5-2,3.6-3.6c0.9-1.4,1.7-3.1,2.5-5.1H193.3z"/>
	</g>
	<g>
		<path d="M123.7,20.9c0.6-2.3,1.2-4.5,1.7-6.7h-8.9c-0.6,2.8-1.1,5.6-1.6,8.4c-0.3-1.4-0.6-2.8-0.9-4.3c-0.3-1.4-0.5-2.8-0.8-4.1
			H98.6c-0.2,1.6-0.5,3.2-0.7,4.9c-0.2,1.8-0.5,3.5-0.6,5.1h8.4c0.1-0.4,0.1-0.8,0.2-1.1c0.3-1.7,0.6-3.3,0.9-5
			c0.4,1.4,0.7,2.8,1.1,4.2c0.2,0.7,0.4,1.3,0.6,2h14.3C123.1,23.1,123.4,22,123.7,20.9z"/>
		<path d="M126.1,11.6c0.4-1.6,0.9-3.1,1.3-4.5c0.4,0.8,0.9,1.4,1.4,2c0.5,0.6,1,0.9,1.5,1c0.4,0.1,1,0.1,1.7-0.1
			c0.5-0.1,1.1-0.2,1.8-0.3c0.7-0.1,1.5-0.2,2.3-0.3c-0.2,0.7-0.3,1.5-0.5,2.3h9.7c0.3-1.2,0.6-2.4,0.9-3.5c1.3-0.1,2.6-0.3,3.8-0.4
			c1.2-0.1,2.4-0.2,3.4-0.3c0.4,0,0.7-0.1,0.9-0.1c0.4,0.7,0.9,1.3,1.4,1.8c0.5,0.6,1,0.9,1.5,1c0.4,0.1,1,0.1,1.7-0.1
			c0.5-0.1,1.1-0.2,1.8-0.3c0.7-0.1,1.5-0.2,2.3-0.3c-0.2,0.7-0.3,1.5-0.5,2.3h9.7c0.3-1.2,0.6-2.4,0.9-3.5c1.3-0.1,2.6-0.3,3.8-0.4
			c1.2-0.1,2.4-0.2,3.4-0.3c0.8-0.1,1.3-0.2,1.5-0.4c0.1-0.2,0.1-0.7,0-1.3c-0.2-0.7-0.5-1.4-0.8-2.1c-0.4-0.7-0.8-1.4-1.3-2
			c-0.3-0.3-0.6-0.6-1-0.7c-0.4-0.1-1-0.2-1.8-0.2c-1.6,0.1-3.4,0.2-5.4,0.3c-2,0.1-4.1,0.3-6.1,0.5c-2.1,0.2-4.1,0.5-6.1,0.7
			c-2,0.3-3.8,0.6-5.4,0.9c-0.3-0.5-0.6-1-1-1.5c-0.3-0.3-0.6-0.6-1-0.7c-0.4-0.1-1-0.2-1.8-0.2c-1.6,0.1-3.4,0.2-5.4,0.3
			c-2,0.1-4.1,0.3-6.1,0.5c-2.1,0.2-4.1,0.5-6.1,0.7c-2,0.3-3.8,0.6-5.4,0.9c-0.1,0-0.2,0.1-0.3,0.1c0,0-0.1,0-0.1-0.1
			c-0.5-0.3-0.9-0.5-1.2-0.7c-0.4-0.2-0.7-0.3-1-0.5c-0.3-0.1-0.6-0.2-1-0.3c-0.3-0.1-0.7-0.2-1.1-0.3c-0.9-0.2-1.5-0.2-2,0
			c-0.4,0.2-0.8,0.7-1,1.5c-0.7,2.7-1.5,5.7-2.3,9H126.1z"/>
		<path d="M161.9,14.1c-0.1,0.4-0.2,0.8-0.2,1.2c-0.4,2.1-0.8,4.3-1.1,6.4c-0.1,0.8-0.3,1.6-0.4,2.4h8.9c0.1-0.6,0.3-1.2,0.4-1.8
			c0.6-2.4,1.2-4.8,1.8-7.2c0.1-0.3,0.2-0.7,0.3-1H161.9z"/>
		<path d="M142.6,22.4c0.6-2.4,1.2-4.8,1.8-7.2c0.1-0.3,0.2-0.7,0.3-1h-9.6c-0.1,0.4-0.2,0.8-0.2,1.2c-0.4,2.1-0.8,4.3-1.1,6.4
			c-0.1,0.8-0.3,1.6-0.4,2.4h8.9C142.4,23.6,142.5,23,142.6,22.4z"/>
		<path d="M97,26.6c-0.1,0.9-0.2,1.7-0.2,2.5c-0.1,1.3-0.2,2.4-0.3,3.1c-0.1,0.7,0,1.2,0.2,1.6s0.6,0.7,1.2,1
			c0.6,0.4,1.3,0.7,1.9,0.8c0.7,0.2,1.3,0.3,2,0.5c0.7,0.2,1.2,0.2,1.4,0.1s0.4-0.4,0.5-0.9c0.1-1,0.3-2.1,0.5-3.4
			c0.2-1.3,0.5-2.7,0.8-4.2c0.1-0.4,0.1-0.8,0.2-1.2H97z"/>
		<path d="M133,26.6c0,0.3-0.1,0.7-0.1,1.1c-0.2,1.9-0.4,3.5-0.5,4.8c-0.1,0.5-0.1,1,0,1.3c0.1,0.4,0.4,0.7,0.7,1
			c0.3,0.3,0.7,0.5,1.2,0.7c0.5,0.2,1,0.4,1.5,0.5c0.6,0.2,1.1,0.3,1.5,0.4s0.9,0.2,1.2,0.2c0.4,0,0.6,0,0.8-0.2
			c0.2-0.1,0.3-0.4,0.4-0.7c0.4-2,0.8-4.1,1.3-6.3c0.2-0.9,0.4-1.8,0.6-2.7H133z"/>
		<path d="M159.9,26.6c0,0.3-0.1,0.7-0.1,1.1c-0.2,1.9-0.4,3.5-0.5,4.8c-0.1,0.5-0.1,1,0,1.3c0.1,0.4,0.4,0.7,0.7,1
			c0.3,0.3,0.7,0.5,1.2,0.7c0.5,0.2,1,0.4,1.5,0.5c0.6,0.2,1.1,0.3,1.5,0.4s0.9,0.2,1.2,0.2c0.4,0,0.6,0,0.8-0.2
			c0.2-0.1,0.3-0.4,0.4-0.7c0.4-2,0.8-4.1,1.3-6.3c0.2-0.9,0.4-1.8,0.6-2.7H159.9z"/>
		<path d="M112.8,11.6c-0.1-0.6-0.2-1.2-0.3-1.7c-0.2-1.2-0.4-2.2-0.5-3c-0.2-1-0.4-1.8-0.8-2.3c-0.4-0.5-0.9-1-1.8-1.3
			c-1-0.5-2-0.9-3-1.2c-0.9-0.3-1.9-0.6-2.9-0.9c-0.8-0.2-1.5-0.2-2,0c-0.5,0.2-0.8,0.7-1,1.5c-0.3,1.4-0.6,3-0.9,4.8
			c-0.2,1.3-0.4,2.7-0.7,4.1H112.8z"/>
		<path d="M109.3,26.6c0.4,1.1,0.7,2.1,1,3.1c0.4,1.1,0.8,2.1,1.2,2.9c0.5,1.2,1.3,2,2.5,2.4c1.3,0.5,2.6,0.8,3.8,1.1
			c1.5,0.3,2.3,0,2.4-1.1c0.4-1.9,1-4.1,1.6-6.6c0.2-0.6,0.3-1.3,0.5-1.9H109.3z"/>
	</g>
	<g>
		<path d="M96.8,11.6c0.1-0.3,0.2-0.6,0.2-0.8c0.4-1.6,0.9-3,1.2-4.2c0.2-0.7,0.2-1.3,0.1-1.7c-0.1-0.4-0.6-0.8-1.4-1.3
			c-0.7-0.5-1.6-0.9-2.5-1.4c-1-0.4-1.9-0.8-2.7-1c-0.8-0.2-1.5-0.3-1.9-0.1c-0.4,0.2-0.7,0.7-1,1.4c-0.3,1.3-0.6,2.7-1,4.4
			c-0.3,1.4-0.6,3-0.9,4.6H96.8z"/>
		<path d="M86.5,14.1c-0.2,1.3-0.5,2.7-0.7,4.1c-0.3,2-0.6,3.8-0.9,5.6c0,0.1,0,0.2,0,0.3h8.7c0.2-1,0.5-2,0.7-3
			c0.4-1.8,0.9-3.6,1.3-5.3c0.1-0.6,0.3-1.1,0.4-1.6H86.5z"/>
		<path d="M84.6,26.6c-0.1,0.7-0.2,1.4-0.3,2.1c-0.2,1.5-0.3,2.7-0.3,3.7c-0.1,0.7,0,1.2,0.2,1.6s0.6,0.7,1.2,1
			c0.6,0.3,1.2,0.5,1.8,0.7c0.6,0.2,1.3,0.4,2,0.6c0.7,0.2,1.2,0.2,1.4,0c0.2-0.1,0.4-0.4,0.5-0.9c0.2-1.2,0.5-2.6,0.9-4.1
			c0.3-1.5,0.7-3.1,1.1-4.8H84.6z"/>
	</g>
	<g>
		<path d="M68.2,11.6c0.2-0.6,0.3-1.2,0.5-1.7c1.1-0.5,2-0.9,3-1.1c0.9-0.2,1.8-0.3,2.6-0.3c1.6,0,2.5,0.4,2.9,1.1
			c0.2,0.5,0,1.1-0.4,1.9c0,0,0,0,0,0h8.3c0-0.4-0.1-0.8-0.2-1.3c-0.4-1.7-1-3.1-1.8-4.3s-1.6-2.3-2.6-3.3c-1.2-1.2-2.6-1.9-4.1-2.1
			c-1.6-0.3-3.2-0.2-5,0.1c-1.8,0.3-3.6,0.8-5.4,1.6c-1.8,0.7-3.6,1.5-5.2,2.2c-0.4,0.2-0.7,0.7-1,1.4c-0.3,0.8-0.6,1.7-0.9,2.9
			c-0.2,0.8-0.4,1.8-0.6,2.8H68.2z"/>
		<path d="M74.8,14.1c0,0-0.1,0.1-0.1,0.1c-1,0.9-2.2,1.8-3.6,2.8c-1.4,0.9-3.1,1.7-5,2.3c0.5-1.8,1-3.5,1.4-5c0-0.1,0-0.1,0-0.2
			h-9.6c-0.2,1.1-0.3,2.1-0.5,3.2c-0.2,1.6-0.4,3.1-0.6,4.7c-0.1,0.7-0.2,1.4-0.2,2.1h15.8c2.8-1.3,5.3-2.7,7.4-4.2
			c2.2-1.6,3.7-3.3,4.7-5.1c0.1-0.2,0.2-0.5,0.3-0.7H74.8z"/>
		<path d="M80.8,33.1c-0.7-0.5-1.4-1.2-2.2-1.9c-0.8-0.7-1.5-1.5-2.3-2.3c-0.8-0.8-1.5-1.5-2.2-2.3h-9.5c0.6,0.8,1.3,1.5,2.1,2.2
			c0.9,0.8,1.7,1.7,2.6,2.4c0.9,0.8,1.7,1.5,2.5,2.1c0.8,0.6,1.5,1.2,2.1,1.6c0.9,0.6,1.8,0.9,2.5,1s1.4,0,2-0.1
			c0.5-0.1,0.9-0.2,1.2-0.2c0.3-0.1,0.7-0.3,1.2-0.7c0.4-0.3,0.6-0.6,0.7-0.8C81.6,33.9,81.4,33.5,80.8,33.1z"/>
		<path d="M56.4,26.6c-0.1,1.3-0.2,2.5-0.3,3.5c-0.1,1.1-0.2,1.9-0.2,2.5c-0.1,0.7,0,1.3,0.2,1.7c0.2,0.4,0.5,0.8,1.1,1.1
			c0.5,0.3,1.1,0.5,1.6,0.6c0.6,0.1,1.2,0.3,1.9,0.4c0.6,0.1,1,0.1,1.3,0c0.2-0.1,0.4-0.4,0.5-0.8c0.3-1.5,0.6-2.9,0.9-4.4
			c0.3-1.4,0.6-2.9,1-4.4H56.4z"/>
	</g>
	<g>
		<path d="M39.6,11.6c0.1-0.5,0.3-1.1,0.4-1.6c1-0.4,2-0.8,2.9-1c1-0.2,1.8-0.3,2.6-0.4c0.8,0,1.4,0,1.9,0.2
			c0.5,0.2,0.8,0.4,0.9,0.7c0.2,0.5,0.1,1.2-0.2,1.9h8.2c0-0.4-0.1-0.8-0.2-1.3c-0.4-1.7-1-3.1-1.8-4.3s-1.6-2.3-2.5-3.3
			c-0.8-0.8-1.7-1.3-2.8-1.6c-1.1-0.3-2.2-0.5-3.5-0.4c-1.2,0-2.5,0.2-3.9,0.5c-1.3,0.3-2.7,0.7-4,1.2c-1.3,0.5-2.6,1-3.8,1.6
			c-1.2,0.6-2.4,1.1-3.4,1.7c-0.3,0.1-0.5,0.8-0.7,2c-0.2,1.1-0.3,2.4-0.5,3.9H39.6z"/>
		<path d="M46.6,14.1c-0.1,0.1-0.3,0.3-0.4,0.4c-0.9,0.9-2.1,1.8-3.5,2.7c-1.4,0.9-3.1,1.6-5,2.2c0.4-1.7,0.8-3.3,1.2-4.9
			c0-0.2,0.1-0.3,0.1-0.4h-9.8c-0.1,1.2-0.2,2.5-0.3,3.8c-0.2,2.1-0.3,4.1-0.5,6.1c0,0,0,0,0,0.1h15.8c0.5-0.2,1-0.4,1.4-0.7
			c1.5-0.8,2.9-1.6,4.2-2.4c1.3-0.9,2.4-1.8,3.3-2.7c0.6-0.6,1.1-1.1,1.6-1.7c0.5-0.6,0.9-1.2,1.2-1.9c0.1-0.2,0.2-0.4,0.2-0.6H46.6
			z"/>
		<path d="M28.2,26.6c-0.1,0.9-0.2,1.8-0.3,2.7c-0.2,1.5-0.4,2.6-0.7,3.3c-0.2,0.7-0.1,1.3,0.1,1.7c0.3,0.4,0.6,0.8,1.2,1.1
			s1.1,0.5,1.8,0.7c0.7,0.2,1.3,0.4,2,0.5c0.7,0.1,1.2,0.1,1.4,0s0.4-0.4,0.6-0.8c0.2-1.4,0.5-2.8,0.7-4.2c0.3-1.4,0.6-2.9,0.9-4.4
			c0.5-0.1,1-0.3,1.5-0.4H28.2z"/>
	</g>
	<g>
		<path d="M14.2,11.6c0.2-0.2,0.3-0.4,0.5-0.7c0.5-0.6,1-1.2,1.6-1.7c0.5-0.5,1-0.8,1.5-1.1c0.5-0.4,0.9-0.5,1.1-0.4
			c0.2,0.1,0.3,0.3,0.4,0.6s0,0.8-0.1,1.4c-0.1,0.6-0.2,1.1-0.4,1.7c0,0,0,0.1,0,0.1h9.3c0.1-0.7,0.2-1.3,0.3-1.9c0-0.4,0-0.8,0-1.3
			c0-0.4-0.1-0.9-0.2-1.4c-0.1-0.5-0.3-1-0.6-1.5c-0.3-0.5-0.7-1-1.2-1.5c-0.8-0.8-1.8-1.5-3-2.1c-1.2-0.6-2.4-1.1-3.6-1.6
			c-0.8-0.2-1.6-0.4-2.3-0.4c-0.7,0-1.4,0-2.1,0.1c-0.6,0.1-1.2,0.3-1.7,0.5c-0.5,0.2-0.9,0.5-1.3,0.7c-1,0.6-1.9,1.3-2.9,2.2
			C8.3,4.4,7.4,5.3,6.6,6.3c-0.8,1-1.5,2-2,3.1c-0.4,0.8-0.8,1.6-1,2.3H14.2z"/>
		<path d="M19.2,23.2c-1-0.6-1.9-1.2-2.9-1.9c-1-0.6-1.8-1.3-2.6-2.1c-0.6-0.5-1-1.2-1.2-1.9s-0.2-1.4,0-2.1
			c0.1-0.4,0.2-0.7,0.3-1.1H2.9c-0.1,0.4-0.1,0.9-0.1,1.3c0,1,0.2,1.9,0.5,2.8s0.8,1.7,1.4,2.4c0.6,0.7,1.2,1.4,2,2
			c0.6,0.5,1.3,1,2,1.5h12.1C20.3,23.8,19.8,23.5,19.2,23.2z"/>
		<path d="M24,26.8c0,0-0.1-0.1-0.1-0.1H12.6c0.4,0.3,0.8,0.5,1.2,0.7c0.7,0.5,1.4,0.9,1.9,1.3c0.5,0.4,0.8,0.7,1,1.1
			c0.2,0.3,0.1,0.6-0.2,0.8c-0.8,0.6-2,0.7-3.7,0.3c-1.7-0.4-3.7-1.3-5.9-2.7c-0.4-0.3-0.9-0.5-1.4-0.6c-0.5-0.1-1-0.2-1.6-0.3
			c-0.6,0-1.1,0-1.6,0.1c-0.5,0.1-1.1,0.2-1.5,0.4C0.3,28,0,28.4,0,29c0.1,0.5,0.7,1.2,1.8,2.2c2.2,2,4.3,3.4,6.3,4.3
			c2,0.8,4.2,1.2,6.3,1.2c1.6,0,3-0.2,4.2-0.6s2.1-0.8,3-1.4c0.8-0.6,1.5-1.2,1.9-1.8c0.5-0.6,0.9-1.3,1.1-1.8
			c0.4-0.8,0.6-1.5,0.4-2.2C24.9,28.1,24.6,27.4,24,26.8z"/>
		<path d="M18,14.1c0,0.3-0.1,0.5-0.1,0.8c-0.3,2.2,1.4,4,5.1,5.3c0.6,0.2,1.1,0.3,1.5,0.2c0.4-0.1,0.7-0.5,1-1
			c0.3-0.6,0.6-1.3,0.9-2.1c0.3-0.8,0.6-1.7,0.8-2.5c0.1-0.2,0.1-0.4,0.1-0.6H18z"/>
	</g>
</g>
</svg>
